<svg width="20" height="20" viewBox="0 0 20 20" fill="none" xmlns="http://www.w3.org/2000/svg">
<path d="M1.07734 9.41089L6.91067 3.57755C7.06784 3.42576 7.27834 3.34176 7.49684 3.34366C7.71534 3.34556 7.92435 3.4332 8.07885 3.58771C8.23336 3.74221 8.321 3.95122 8.3229 4.16972C8.3248 4.38822 8.2408 4.59872 8.089 4.75589L3.67817 9.16672H18.3332C18.5542 9.16672 18.7661 9.25452 18.9224 9.4108C19.0787 9.56708 19.1665 9.77904 19.1665 10.0001C19.1665 10.2211 19.0787 10.433 18.9224 10.5893C18.7661 10.7456 18.5542 10.8334 18.3332 10.8334H3.67817L8.089 15.2442C8.1686 15.3211 8.23208 15.413 8.27576 15.5147C8.31943 15.6164 8.34242 15.7257 8.34338 15.8364C8.34434 15.947 8.32326 16.0568 8.28135 16.1592C8.23945 16.2616 8.17758 16.3546 8.09933 16.4329C8.02109 16.5111 7.92805 16.573 7.82563 16.6149C7.72322 16.6568 7.61349 16.6779 7.50284 16.6769C7.39219 16.676 7.28284 16.653 7.18117 16.6093C7.0795 16.5656 6.98754 16.5021 6.91067 16.4226L1.07734 10.5892C0.921112 10.4329 0.833349 10.221 0.833349 10.0001C0.833349 9.77908 0.921112 9.56716 1.07734 9.41089Z" fill="#5646CC"/>
</svg>
